<svg width="31" height="32" viewBox="0 0 31 32" xmlns="http://www.w3.org/2000/svg"><title>mg</title><path d="M17.495 22.147l8.428 8.644c1.06 1.09 2.777 1.09 3.837 0 1.06-1.086 1.06-2.847 0-3.935l-8.395-8.61c1.104-1.814 1.74-3.953 1.74-6.232 0-6.52-5.155-11.808-11.51-11.808C5.237.205.08 5.495.08 12.013S5.238 23.82 11.594 23.82c2.16 0 4.177-.612 5.9-1.673zM2.48 12.013c0-5.163 4.08-9.348 9.114-9.348 5.033 0 9.114 4.185 9.114 9.348 0 5.162-4.08 9.347-9.114 9.347-5.033 0-9.114-4.185-9.114-9.347z" fill="#EC6583" fill-rule="evenodd"/></svg>